<?xml version="1.0" standalone="no"?><!DOCTYPE svg PUBLIC "-//W3C//DTD SVG 1.1//EN" "http://www.w3.org/Graphics/SVG/1.1/DTD/svg11.dtd"><svg t="1761044771740" class="icon" viewBox="0 0 1024 1024" version="1.1" xmlns="http://www.w3.org/2000/svg" p-id="8466" width="60" height="60" xmlns:xlink="http://www.w3.org/1999/xlink"><path d="M721.1 960c-108.6 0-196.7-88.1-196.7-196.7s88.1-196.7 196.7-196.7 196.7 88.1 196.7 196.7S829.7 960 721.1 960z m0-347.1c-82.9 0-150.4 67.5-150.4 150.4s67.5 150.4 150.4 150.4 150.4-67.5 150.4-150.4S804 612.9 721.1 612.9z m65.5 172.3H721c-12.1 0-21.9-9.8-21.9-21.9v-65.6c0-12.1 9.8-21.9 21.9-21.9s21.9 9.8 21.9 21.9v43.7h43.7c12.1 0 21.9 9.8 21.9 21.9s-9.8 21.9-21.9 21.9zM240.3 610.3c0-12.1 9.8-21.9 21.9-21.9H437c12.1 0 21.9 9.8 21.9 21.9 0 12.1-9.8 21.9-21.9 21.9H262.1c-12 0-21.8-9.8-21.8-21.9z m21.8-371.5h43.7c12.1 0 21.9 9.8 21.9 21.9 0 12.1-9.8 21.9-21.9 21.9h-43.7c-12.1 0-21.9-9.8-21.9-21.9 0.1-12.1 9.9-21.9 21.9-21.9z m153 0h284.1c12.1 0 21.9 9.8 21.9 21.9 0 12.1-9.8 21.9-21.9 21.9H415.1c-12.1 0-21.9-9.8-21.9-21.9 0.1-12.1 9.9-21.9 21.9-21.9z m-153 174.9h306c12.1 0 21.9 9.8 21.9 21.9 0 12.1-9.8 21.9-21.9 21.9h-306c-12.1 0-21.9-9.8-21.9-21.9 0.1-12.2 9.9-21.9 21.9-21.9z m546.4-284.1c0-12.1-9.8-21.9-21.9-21.9H174.7c-12.1 0-21.9 9.8-21.9 21.9v699.3c0 12.1 9.8 21.9 21.9 21.9H437c12.1 0 21.9 9.8 21.9 21.9 0 12.1-9.8 21.9-21.9 21.9H174.7c-36.2 0-65.6-29.4-65.6-65.6V129.6c0-36.2 29.4-65.6 65.6-65.6h611.9c36.2 0 65.6 29.4 65.6 65.6v349.7c0 12.1-9.8 21.9-21.9 21.9-12.1 0-21.9-9.8-21.9-21.9V129.6z" fill="#328bb4" p-id="8467"></path></svg>