<?xml version="1.0" standalone="no"?><!DOCTYPE svg PUBLIC "-//W3C//DTD SVG 1.1//EN" "http://www.w3.org/Graphics/SVG/1.1/DTD/svg11.dtd"><svg t="1745417137732" class="icon" viewBox="0 0 1024 1024" version="1.1" xmlns="http://www.w3.org/2000/svg" p-id="11816" xmlns:xlink="http://www.w3.org/1999/xlink" width="18" height="18"><path d="M227.9 1024H57.2C25.8 1024 0.3 998.5 0.3 967.1V341.3c0-31.4 25.5-56.9 56.9-56.9h170.7c31.4 0 56.9 25.5 56.9 56.9v625.8c-0.1 31.4-25.5 56.9-56.9 56.9zM966.8 1024H767.7c-31.4 0-56.9-25.5-56.9-56.9v-512c0-31.4 25.5-56.9 56.9-56.9h199.1c31.4 0 56.9 25.5 56.9 56.9v512c0 31.4-25.5 56.9-56.9 56.9zM598.2 1024H399.1c-31.4 0-56.9-25.5-56.9-56.9V56.9c0-31.4 25.5-56.9 56.9-56.9h199.1c31.4 0 56.9 25.5 56.9 56.9v910.2c0 31.4-25.5 56.9-56.9 56.9z" p-id="11817" fill="#e41065"></path></svg>